<svg id="Capa_1" enable-background="new 0 0 512 512" height="512" viewBox="0 0 512 512" width="512" xmlns="http://www.w3.org/2000/svg"><g><path d="m391.017 251.454h35.714c8.074 0 14.643-6.569 14.643-14.643v-35.714c0-8.074-6.569-14.643-14.643-14.643h-35.714c-8.074 0-14.643 6.569-14.643 14.643v35.714c0 8.074 6.569 14.643 14.643 14.643zm.357-50h35v35h-35zm-.357 145h35.714c8.074 0 14.643-6.569 14.643-14.643v-35.714c0-8.074-6.569-14.643-14.643-14.643h-35.714c-8.074 0-14.643 6.569-14.643 14.643v35.714c0 8.074 6.569 14.643 14.643 14.643zm.357-50h35v35h-35zm-102.273-45h35.714c8.074 0 14.643-6.569 14.643-14.643v-35.714c0-8.074-6.569-14.643-14.643-14.643h-35.714c-8.074 0-14.643 6.569-14.643 14.643v35.714c0 8.074 6.569 14.643 14.643 14.643zm.357-50h35v35h-35zm-168.475 170.546h-35.714c-8.074 0-14.643 6.569-14.643 14.643v35.714c0 8.074 6.569 14.643 14.643 14.643h35.714c8.074 0 14.643-6.569 14.643-14.643v-35.714c0-8.074-6.569-14.643-14.643-14.643zm-.357 50h-35v-35h35zm.357-235.546h-35.714c-8.074 0-14.643 6.569-14.643 14.643v35.714c0 8.074 6.569 14.643 14.643 14.643h35.714c8.074 0 14.643-6.569 14.643-14.643v-35.714c0-8.075-6.569-14.643-14.643-14.643zm-.357 50h-35v-35h35zm168.475 107.773h35.714c8.074 0 14.643-6.569 14.643-14.643v-35.714c0-8.074-6.569-14.643-14.643-14.643h-35.714c-8.074 0-14.643 6.569-14.643 14.643v35.714c0 8.074 6.569 14.643 14.643 14.643zm.357-50h35v35h-35zm159.365-259.953h-32.066v-11.467c0-12.576-10.231-22.807-22.807-22.807h-3.444c-12.575 0-22.806 10.231-22.806 22.807v11.467h-223.4v-11.467c0-12.576-10.231-22.807-22.807-22.807h-3.444c-12.576 0-22.807 10.231-22.807 22.807v11.467h-32.065c-20.705 0-37.55 16.845-37.55 37.55v402.676c0 20.678 16.822 37.5 37.5 37.5h385.748c20.678 0 37.5-16.822 37.5-37.5v-402.676c-.001-20.705-16.846-37.55-37.552-37.55zm-66.123-11.467c0-4.305 3.502-7.807 7.807-7.807h3.444c4.305 0 7.807 3.502 7.807 7.807v11.467h-19.058zm-272.457 0c0-4.305 3.502-7.807 7.807-7.807h3.444c4.305 0 7.807 3.502 7.807 7.807v11.467h-19.057v-11.467zm361.131 451.693c0 12.407-10.093 22.5-22.5 22.5h-385.748c-12.407 0-22.5-10.093-22.5-22.5v-.047c6.284 4.735 14.095 7.547 22.551 7.547h304.083c10.03 0 19.46-3.906 26.552-10.999l77.562-77.562zm-85.215-17.059c.588-2.427.908-4.958.908-7.563v-50.064c0-9.44 7.681-17.121 17.122-17.121h50.063c2.605 0 5.136-.32 7.563-.908zm85.215-315.987h-319.574c-4.142 0-7.5 3.358-7.5 7.5s3.358 7.5 7.5 7.5h319.574v194.118c0 9.441-7.681 17.122-17.122 17.122h-50.063c-17.712 0-32.122 14.41-32.122 32.121v50.064c0 9.441-7.681 17.122-17.121 17.122h-291.769c-12.434 0-22.55-10.116-22.55-22.551v-287.996h81.173c4.142 0 7.5-3.358 7.5-7.5s-3.358-7.5-7.5-7.5h-81.174v-69.63c0-12.434 10.116-22.55 22.55-22.55h32.066v22.052c0 12.576 10.231 22.807 22.807 22.807 4.142 0 7.5-3.358 7.5-7.5s-3.358-7.5-7.5-7.5c-4.305 0-7.807-3.502-7.807-7.807v-22.052h257.458v22.052c0 12.576 10.231 22.807 22.807 22.807 4.142 0 7.5-3.358 7.5-7.5s-3.358-7.5-7.5-7.5c-4.305 0-7.807-3.502-7.807-7.807v-22.052h66.124c12.434 0 22.55 10.116 22.55 22.55zm-350.391 137.773h-35.714c-8.074 0-14.643 6.569-14.643 14.643v35.714c0 8.074 6.569 14.643 14.643 14.643h35.714c8.074 0 14.643-6.569 14.643-14.643v-35.714c0-8.075-6.569-14.643-14.643-14.643zm-.357 50h-35v-35h35zm66.559-77.773h35.714c8.074 0 14.643-6.569 14.643-14.643v-35.714c0-8.074-6.569-14.643-14.643-14.643h-35.714c-8.074 0-14.643 6.569-14.643 14.643v35.714c0 8.074 6.569 14.643 14.643 14.643zm.357-50h35v35h-35zm101.907 220.546c-.186-3.977-3.469-7.143-7.492-7.143-4.142 0-7.5 3.358-7.5 7.5 0 8.074 6.569 14.643 14.643 14.643h35.714c8.074 0 14.643-6.569 14.643-14.643v-35.714c0-8.074-6.569-14.643-14.643-14.643h-35.714c-8.074 0-14.643 6.569-14.643 14.643v10.3c0 4.142 3.358 7.5 7.5 7.5s7.5-3.358 7.5-7.5v-9.943h35v35zm-102.264-77.773h35.714c8.074 0 14.643-6.569 14.643-14.643v-35.714c0-8.074-6.569-14.643-14.643-14.643h-35.714c-8.074 0-14.643 6.569-14.643 14.643v35.714c0 8.074 6.569 14.643 14.643 14.643zm.357-50h35v35h-35zm-.357 142.773h35.714c8.074 0 14.643-6.569 14.643-14.643v-35.714c0-8.074-6.569-14.643-14.643-14.643h-35.714c-8.074 0-14.643 6.569-14.643 14.643v35.714c0 8.074 6.569 14.643 14.643 14.643zm.357-50h35v35h-35z"/></g></svg>